<?xml version="1.0" encoding="UTF-8" ?>
<!DOCTYPE svg PUBLIC "-//W3C//DTD SVG 1.1//EN" "http://www.w3.org/Graphics/SVG/1.1/DTD/svg11.dtd">
<svg width="1181pt" height="1008pt" viewBox="0 0 1181 1008" version="1.1" xmlns="http://www.w3.org/2000/svg">
    <g id="#fcfcfcff">
    </g>
    <g id="#ccf7ebff">
        <path fill="#ccf7eb" opacity="1.00"
              d=" M 575.59 33.60 C 578.55 32.28 581.72 31.38 585.00 31.45 C 595.02 31.44 605.15 30.76 615.04 32.75 C 622.15 32.89 629.12 33.94 636.06 35.41 C 672.15 42.69 706.33 59.66 733.79 84.24 C 748.38 97.08 761.14 111.98 771.65 128.33 C 773.45 131.24 776.10 134.01 775.85 137.70 C 770.31 130.31 765.96 122.09 760.08 114.94 C 729.13 74.16 682.56 45.50 632.09 36.74 C 627.18 36.19 622.34 35.17 617.46 34.45 C 603.56 32.84 589.54 33.99 575.59 33.60 Z"/>
    </g>
    <g id="#85f0d1ff">
        <path fill="#85f0d1" opacity="1.00"
              d=" M 557.96 35.99 C 563.85 35.30 569.62 33.48 575.59 33.60 C 589.54 33.99 603.56 32.84 617.46 34.45 C 622.34 35.17 627.18 36.19 632.09 36.74 C 682.56 45.50 729.13 74.16 760.08 114.94 C 765.96 122.09 770.31 130.31 775.85 137.70 C 782.06 147.60 786.57 158.49 790.84 169.35 C 792.38 174.16 794.50 178.83 795.31 183.84 C 795.84 188.20 796.89 192.47 797.94 196.73 C 799.46 202.82 799.85 209.11 801.12 215.24 C 802.78 223.38 802.36 231.72 802.47 239.97 C 802.36 249.07 802.86 258.27 800.97 267.24 C 799.10 278.73 797.49 290.35 793.62 301.39 C 784.38 331.54 768.34 359.65 746.60 382.56 C 723.24 407.51 693.66 426.76 661.16 437.43 C 646.28 442.81 630.60 445.40 614.98 447.48 C 603.44 447.88 591.88 447.63 580.33 447.65 C 572.77 447.78 565.45 445.60 557.97 444.89 C 523.52 438.64 490.76 423.39 463.77 401.11 C 436.90 379.17 415.76 350.31 402.82 318.14 C 400.03 311.64 398.19 304.78 395.44 298.27 C 393.12 292.74 392.52 286.72 390.88 280.99 C 390.46 274.59 388.11 268.46 388.33 262.00 C 387.06 251.04 387.54 239.99 387.55 228.98 C 389.49 188.30 404.39 148.46 428.85 115.93 C 451.53 85.62 482.66 61.80 517.73 47.58 C 520.13 46.51 522.62 45.62 525.24 45.26 C 525.43 44.78 525.64 44.31 525.85 43.84 C 532.45 43.03 538.52 39.99 545.00 38.65 C 549.39 38.12 553.55 36.43 557.96 35.99 M 562.03 45.59 C 558.10 45.96 554.20 46.69 550.56 48.23 C 546.57 47.06 542.78 49.17 539.00 50.13 C 492.97 63.58 452.45 94.52 426.99 135.10 C 414.45 154.96 405.54 177.08 400.50 200.00 C 399.93 201.97 400.37 204.01 400.62 205.99 C 399.03 212.89 398.08 219.99 397.60 227.07 C 397.53 242.79 396.63 258.77 400.36 274.18 C 398.72 278.86 401.17 283.44 402.05 287.99 C 414.48 339.68 448.85 385.47 494.70 412.27 C 516.15 424.94 540.04 433.55 564.66 437.28 C 570.98 439.13 577.60 438.43 584.07 439.13 C 595.83 440.15 607.61 438.92 619.36 438.47 C 631.48 436.35 643.68 434.33 655.36 430.33 C 690.24 419.35 721.75 398.27 745.66 370.65 C 768.06 344.96 783.45 313.36 790.38 280.02 C 790.80 276.60 791.33 273.20 792.18 269.86 C 794.20 261.71 792.90 253.24 794.08 244.98 C 794.96 238.97 793.42 233.00 793.48 226.99 C 793.48 221.68 793.13 216.36 792.32 211.11 C 792.19 209.64 791.12 208.56 790.34 207.42 C 790.26 202.48 788.18 197.85 787.45 192.99 C 785.68 187.43 784.68 181.64 782.43 176.22 C 763.24 119.72 716.92 73.21 660.48 53.83 C 656.03 52.41 651.71 50.18 646.91 50.37 C 647.53 50.17 648.16 49.96 648.80 49.75 C 634.70 46.71 620.51 43.03 605.98 43.40 C 596.00 43.31 586.01 43.35 576.04 43.51 C 571.28 43.57 566.73 45.16 562.03 45.59 Z"/>
        <path fill="#85f0d1" opacity="1.00"
              d=" M 701.96 175.90 C 703.17 175.00 704.66 174.66 706.08 174.19 C 707.76 176.48 709.44 178.79 711.04 181.15 C 705.21 186.75 698.40 191.16 692.05 196.12 C 643.15 233.23 594.14 270.20 545.25 307.31 C 543.74 308.92 541.05 309.18 539.92 306.99 C 520.77 281.45 501.72 255.82 482.58 230.26 C 481.30 228.50 480.13 226.66 478.96 224.82 C 481.40 222.61 484.11 220.74 487.00 219.15 C 499.74 236.33 512.60 253.43 525.33 270.62 C 531.14 278.71 537.52 286.41 542.99 294.75 C 544.41 294.35 545.95 294.10 547.15 293.15 C 598.73 254.05 650.41 215.05 701.96 175.90 Z"/>
    </g>
    <g id="#c7f7e9ff">
        <path fill="#c7f7e9" opacity="1.00"
              d=" M 539.00 50.13 C 542.78 49.17 546.57 47.06 550.56 48.23 C 543.41 51.17 535.71 52.47 528.53 55.38 C 465.82 77.62 415.92 133.70 402.95 199.18 C 402.38 201.52 401.50 203.76 400.62 205.99 C 400.37 204.01 399.93 201.97 400.50 200.00 C 405.54 177.08 414.45 154.96 426.99 135.10 C 452.45 94.52 492.97 63.58 539.00 50.13 Z"/>
    </g>
    <g id="#cdf7ebff">
        <path fill="#cdf7eb" opacity="1.00"
              d=" M 795.31 183.84 C 795.81 184.08 796.81 184.56 797.31 184.80 C 798.35 191.27 800.77 197.41 801.27 203.98 C 803.57 211.89 802.72 220.20 804.30 228.23 C 804.88 236.95 804.97 245.77 804.19 254.48 C 802.72 260.98 803.67 267.76 801.99 274.22 C 800.70 279.38 800.52 284.77 798.79 289.83 C 790.20 326.57 770.83 360.55 744.36 387.35 C 720.81 411.52 691.23 429.63 659.19 440.13 C 650.23 442.62 641.25 445.09 632.13 446.92 C 628.19 448.07 624.13 448.70 620.02 448.58 C 613.59 448.35 607.42 450.75 600.99 450.49 C 593.80 450.34 586.50 451.05 579.43 449.40 C 572.92 447.99 566.09 449.34 559.72 447.18 C 545.26 444.19 530.84 440.57 517.17 434.92 C 468.57 415.27 427.80 376.83 405.76 329.23 C 401.65 320.95 398.57 312.24 395.54 303.53 C 394.84 301.83 395.06 300.00 395.44 298.27 C 398.19 304.78 400.03 311.64 402.82 318.14 C 415.76 350.31 436.90 379.17 463.77 401.11 C 490.76 423.39 523.52 438.64 557.97 444.89 C 565.45 445.60 572.77 447.78 580.33 447.65 C 591.88 447.63 603.44 447.88 614.98 447.48 C 630.60 445.40 646.28 442.81 661.16 437.43 C 693.66 426.76 723.24 407.51 746.60 382.56 C 768.34 359.65 784.38 331.54 793.62 301.39 C 797.49 290.35 799.10 278.73 800.97 267.24 C 802.86 258.27 802.36 249.07 802.47 239.97 C 802.36 231.72 802.78 223.38 801.12 215.24 C 799.85 209.11 799.46 202.82 797.94 196.73 C 796.89 192.47 795.84 188.20 795.31 183.84 Z"/>
    </g>
    <g id="#c2f6e7ff">
        <path fill="#c2f6e7" opacity="1.00"
              d=" M 790.34 207.42 C 791.12 208.56 792.19 209.64 792.32 211.11 C 793.13 216.36 793.48 221.68 793.48 226.99 C 793.42 233.00 794.96 238.97 794.08 244.98 C 792.90 253.24 794.20 261.71 792.18 269.86 C 791.33 273.20 790.80 276.60 790.38 280.02 C 783.45 313.36 768.06 344.96 745.66 370.65 C 721.75 398.27 690.24 419.35 655.36 430.33 C 643.68 434.33 631.48 436.35 619.36 438.47 C 607.61 438.92 595.83 440.15 584.07 439.13 C 577.60 438.43 570.98 439.13 564.66 437.28 C 540.04 433.55 516.15 424.94 494.70 412.27 C 448.85 385.47 414.48 339.68 402.05 287.99 C 401.17 283.44 398.72 278.86 400.36 274.18 C 403.36 280.65 403.49 287.89 405.56 294.63 C 409.85 308.01 414.56 321.32 421.37 333.65 C 430.17 349.82 441.02 364.95 453.98 378.05 C 479.45 404.55 512.61 423.49 548.28 432.29 C 562.03 434.98 575.89 438.20 589.99 437.70 C 600.17 437.53 610.47 438.40 620.50 436.22 C 645.23 433.23 669.25 425.10 691.02 413.03 C 745.37 383.08 784.26 326.10 790.80 264.22 C 792.98 253.29 792.23 242.11 792.29 231.04 C 792.41 223.09 789.62 215.40 790.34 207.42 Z"/>
    </g>
    <g id="#76c2edff">
        <path fill="#76c2ed" opacity="1.00"
              d=" M 98.04 542.76 C 104.60 542.74 111.16 542.71 117.72 542.78 C 148.39 628.90 179.15 714.99 209.82 801.11 C 204.28 801.13 198.75 801.14 193.22 801.09 C 184.48 776.81 175.86 752.49 167.04 728.23 C 127.45 728.28 87.85 728.24 48.25 728.26 C 39.58 752.54 30.99 776.86 22.28 801.13 C 16.76 801.12 11.25 801.14 5.74 801.11 C 36.47 714.98 67.27 628.87 98.04 542.76 M 107.71 560.96 C 89.47 612.13 71.23 663.31 53.04 714.50 C 89.53 714.49 126.01 714.52 162.50 714.49 C 144.23 663.31 126.21 612.05 107.71 560.96 Z"/>
        <path fill="#76c2ed" opacity="1.00"
              d=" M 325.69 610.61 C 339.03 607.11 353.29 605.86 366.78 609.31 C 377.91 612.12 387.94 619.64 393.14 629.96 C 397.86 639.19 399.09 649.74 399.08 659.98 C 399.08 707.02 399.10 754.07 399.07 801.11 C 393.80 801.13 388.52 801.14 383.25 801.10 C 383.24 754.40 383.27 707.70 383.24 661.00 C 383.17 651.65 381.66 641.73 375.82 634.12 C 370.23 626.74 361.04 622.95 351.99 622.32 C 337.16 621.29 322.47 625.27 308.88 630.90 C 297.19 635.81 286.15 642.30 276.18 650.12 C 276.29 700.45 276.21 750.78 276.22 801.11 C 270.94 801.13 265.66 801.16 260.38 801.07 C 260.39 737.72 260.41 674.38 260.37 611.03 C 264.83 610.98 269.30 610.98 273.76 611.02 C 274.13 619.21 274.48 627.40 274.91 635.59 C 290.32 624.58 307.36 615.60 325.69 610.61 Z"/>
        <path fill="#76c2ed" opacity="1.00"
              d=" M 495.09 608.80 C 510.60 605.94 526.55 607.45 542.00 609.95 C 549.02 611.14 555.93 612.92 562.76 614.91 C 561.75 619.46 560.73 624.00 559.76 628.57 C 542.37 623.61 524.23 620.82 506.12 621.71 C 494.27 622.55 481.51 626.18 473.78 635.80 C 466.58 644.81 466.38 657.15 467.97 668.06 C 468.84 676.62 474.38 684.00 481.64 688.34 C 495.23 696.38 511.26 698.03 526.08 702.73 C 537.31 706.25 548.82 710.32 557.90 718.07 C 567.49 726.48 570.33 739.81 570.70 752.02 C 571.39 765.28 567.90 779.53 558.05 788.95 C 547.22 799.75 531.56 803.60 516.76 804.67 C 494.43 805.76 471.86 802.62 450.79 795.11 C 452.04 790.55 453.30 785.99 454.60 781.44 C 476.19 788.79 499.38 792.38 522.14 789.59 C 531.14 788.32 540.70 785.91 547.27 779.22 C 553.27 773.13 555.21 764.25 555.30 755.97 C 555.31 748.09 554.38 739.76 550.04 732.98 C 546.56 727.64 540.79 724.41 535.11 721.91 C 514.47 712.70 490.60 712.24 471.34 699.71 C 462.15 694.17 455.86 684.65 453.62 674.23 C 450.72 660.81 450.44 645.84 457.54 633.62 C 465.38 620.12 479.99 611.60 495.09 608.80 Z"/>
        <path fill="#76c2ed" opacity="1.00"
              d=" M 930.51 619.50 C 942.88 610.86 958.09 606.90 973.10 607.29 C 990.45 607.20 1007.62 613.95 1020.50 625.54 C 1026.38 630.90 1030.72 637.69 1034.51 644.63 C 1040.44 655.71 1042.19 668.51 1042.18 680.94 C 1042.13 690.48 1042.32 700.02 1042.07 709.56 C 1000.45 709.44 958.83 709.50 917.22 709.53 C 917.60 723.91 915.80 738.74 920.44 752.64 C 924.68 766.37 934.90 778.04 947.92 784.11 C 959.11 789.41 971.73 790.65 983.97 790.13 C 1001.47 789.39 1018.89 786.22 1035.46 780.51 C 1036.40 785.18 1037.44 789.84 1038.02 794.58 C 1017.90 801.85 996.36 805.18 974.99 804.87 C 957.24 804.58 939.09 799.33 925.46 787.60 C 914.62 778.55 906.94 765.87 903.73 752.14 C 900.07 737.03 901.79 721.38 901.39 706.00 C 901.77 690.00 899.98 673.68 904.19 658.02 C 907.77 642.51 917.30 628.42 930.51 619.50 M 955.06 623.92 C 940.09 627.89 927.65 639.42 921.93 653.73 C 916.20 667.27 917.13 682.23 917.34 696.58 C 953.67 696.38 990.01 696.57 1026.34 696.49 C 1026.26 684.09 1027.11 671.40 1023.49 659.37 C 1019.87 646.48 1011.10 635.14 999.47 628.49 C 986.09 621.04 969.70 620.05 955.06 623.92 Z"/>
        <path fill="#76c2ed" opacity="1.00"
              d=" M 1139.25 625.27 C 1151.93 616.89 1165.93 610.18 1181.00 607.53 L 1181.00 623.48 C 1173.35 625.10 1165.83 627.37 1158.72 630.66 C 1142.70 638.08 1127.73 648.10 1115.61 661.02 C 1115.64 707.71 1115.62 754.41 1115.62 801.10 C 1110.35 801.14 1105.08 801.13 1099.81 801.11 C 1099.79 737.74 1099.79 674.38 1099.81 611.01 C 1104.19 610.99 1108.57 610.99 1112.96 611.00 C 1113.41 622.43 1113.83 633.86 1114.29 645.29 C 1121.91 637.81 1130.19 630.97 1139.25 625.27 Z"/>
        <path fill="#76c2ed" opacity="1.00"
              d=" M 596.16 611.01 C 601.81 610.99 607.47 611.00 613.12 611.00 C 631.63 668.17 649.98 725.39 668.55 782.54 C 674.00 768.32 678.48 753.73 683.55 739.37 C 697.73 697.88 711.88 656.38 726.07 614.89 C 730.39 614.86 734.71 614.86 739.03 614.88 C 758.24 670.88 777.22 726.95 796.51 782.92 C 814.98 725.61 833.47 668.30 851.99 611.01 C 857.64 610.99 863.29 610.99 868.95 611.01 C 847.98 674.38 826.99 737.75 805.99 801.12 C 799.78 801.08 793.56 801.27 787.35 800.97 C 769.27 747.61 750.83 694.36 732.61 641.03 C 714.16 694.32 696.09 747.74 677.83 801.09 C 671.63 801.14 665.43 801.18 659.23 801.05 C 638.28 737.68 617.17 674.36 596.16 611.01 Z"/>
        <path fill="#76c2ed" opacity="1.00"
              d=" M 1008.12 869.25 C 1018.70 869.24 1029.28 869.24 1039.87 869.25 C 1039.36 880.82 1039.52 892.44 1038.11 903.96 C 1036.38 920.80 1034.66 937.64 1032.94 954.48 C 1026.97 954.51 1021.00 954.51 1015.04 954.49 C 1013.54 940.12 1012.02 925.76 1010.51 911.39 C 1008.58 897.42 1008.43 883.32 1008.12 869.25 Z"/>
        <path fill="#76c2ed" opacity="1.00"
              d=" M 701.51 881.59 C 718.41 879.65 737.20 882.02 750.44 893.61 C 762.33 903.37 767.17 919.11 768.00 933.98 C 769.06 950.48 767.09 968.35 756.94 981.98 C 749.73 992.03 738.13 998.24 726.10 1000.34 C 715.59 1002.16 704.68 1001.88 694.27 999.58 C 682.54 996.98 671.66 990.01 664.93 979.99 C 656.26 966.79 654.72 950.37 655.39 934.97 C 656.13 920.53 660.45 905.40 671.18 895.14 C 679.26 887.14 690.36 882.92 701.51 881.59 M 707.22 904.25 C 700.73 904.94 694.27 907.97 690.47 913.42 C 686.14 919.68 685.00 927.47 684.45 934.90 C 684.01 944.74 684.15 954.95 687.75 964.27 C 690.32 970.98 696.51 975.88 703.46 977.44 C 712.23 979.45 722.43 978.66 729.52 972.62 C 734.86 968.12 737.17 961.15 738.30 954.48 C 739.60 946.09 739.56 937.51 738.50 929.10 C 737.48 922.19 735.37 914.89 729.95 910.12 C 723.91 904.52 715.10 903.42 707.22 904.25 Z"/>
        <path fill="#76c2ed" opacity="1.00"
              d=" M 192.21 883.24 C 202.44 883.25 212.67 883.24 222.90 883.24 C 236.61 921.85 250.24 960.49 263.89 999.11 C 254.29 999.13 244.69 999.13 235.08 999.11 C 232.25 990.80 229.40 982.49 226.61 974.16 C 212.18 974.09 197.75 974.11 183.31 974.15 C 180.56 982.48 177.79 990.80 174.99 999.12 C 166.14 999.12 157.29 999.14 148.45 999.11 C 163.02 960.48 177.60 921.86 192.21 883.24 M 190.31 953.49 C 200.07 953.50 209.84 953.51 219.61 953.49 C 214.71 938.90 209.85 924.30 204.87 909.74 C 199.95 924.31 195.14 938.90 190.31 953.49 Z"/>
        <path fill="#76c2ed" opacity="1.00"
              d=" M 332.84 883.25 C 342.21 883.24 351.58 883.25 360.95 883.24 C 361.01 899.29 360.90 915.34 361.00 931.38 C 372.84 915.38 384.58 899.31 396.36 883.27 C 408.17 883.22 419.98 883.25 431.79 883.25 C 417.35 899.59 402.88 915.91 388.40 932.23 C 404.03 954.54 419.79 976.77 435.41 999.10 C 423.66 999.14 411.91 999.14 400.17 999.10 C 389.83 983.98 379.49 968.87 369.12 953.78 C 366.39 956.83 363.68 959.90 360.98 962.98 C 360.93 975.02 360.99 987.07 360.95 999.12 C 351.58 999.13 342.21 999.13 332.84 999.12 C 332.82 960.49 332.82 921.87 332.84 883.25 Z"/>
        <path fill="#76c2ed" opacity="1.00"
              d=" M 552.97 883.29 C 562.33 883.28 571.69 883.28 581.05 883.29 C 581.10 921.89 581.07 960.49 581.06 999.09 C 571.69 999.11 562.32 999.11 552.95 999.09 C 552.95 960.49 552.91 921.89 552.97 883.29 Z"/>
        <path fill="#76c2ed" opacity="1.00"
              d=" M 842.24 883.29 C 851.59 883.25 860.94 883.35 870.29 883.23 C 870.47 921.85 870.34 960.47 870.36 999.09 C 860.99 999.10 851.61 999.12 842.24 999.09 C 842.24 960.49 842.23 921.89 842.24 883.29 Z"/>
        <path fill="#76c2ed" opacity="1.00"
              d=" M 1018.20 967.31 C 1025.83 965.07 1035.15 967.58 1039.38 974.64 C 1042.96 980.36 1042.81 988.28 1038.70 993.71 C 1032.27 1002.31 1018.05 1002.93 1010.54 995.44 C 1004.97 989.87 1004.25 980.23 1008.87 973.87 C 1011.09 970.68 1014.48 968.37 1018.20 967.31 Z"/>
    </g>
</svg>
